<?xml version="1.0" standalone="no"?>
<!DOCTYPE svg PUBLIC "-//W3C//DTD SVG 20010904//EN"
 "http://www.w3.org/TR/2001/REC-SVG-20010904/DTD/svg10.dtd">
<svg version="1.0" xmlns="http://www.w3.org/2000/svg"
 width="256.000000pt" height="256.000000pt" viewBox="0 0 256.000000 256.000000"
 preserveAspectRatio="xMidYMid meet">
<metadata>
Created by potrace 1.14, written by Peter Selinger 2001-2017
</metadata>
<g transform="translate(0.000000,256.000000) scale(0.100000,-0.100000)"
fill="#000000" stroke="none">
<path d="M1443 2118 c-1 -25 -14 -204 -19 -263 -11 -126 -13 -152 -19 -230 -3
-44 -8 -107 -10 -140 -3 -33 -7 -89 -10 -125 -6 -73 -14 -183 -20 -250 -2 -25
-6 -83 -10 -130 -3 -47 -7 -110 -10 -140 -3 -30 -7 -82 -10 -115 -2 -33 -7
-89 -10 -125 l-5 -66 157 -3 c87 -1 192 -4 233 -5 41 -1 80 -1 86 1 6 2 12 33
13 71 1 36 7 69 12 73 14 8 140 31 146 26 5 -5 9 -28 17 -92 15 -119 18 -133
30 -130 6 2 29 7 51 10 22 3 76 12 120 20 44 8 96 16 116 19 20 3 42 8 50 10
8 3 32 8 54 11 22 3 55 8 73 11 39 7 42 -24 -25 264 -24 107 -46 202 -48 210
-2 8 -22 98 -45 200 -23 102 -43 192 -45 200 -1 8 -8 33 -13 55 -6 22 -13 51
-15 65 -3 14 -33 149 -68 302 l-62 276 -357 1 c-282 1 -357 -1 -357 -11z m431
-753 c8 -45 24 -159 31 -220 3 -22 8 -56 11 -76 6 -41 4 -43 -44 -54 l-33 -7
7 124 c4 67 8 137 9 153 2 17 4 52 4 79 1 57 6 58 15 1z"/>
<path d="M595 2069 c-60 -10 -128 -21 -150 -23 -22 -3 -49 -7 -60 -10 -11 -2
-41 -6 -66 -10 -25 -4 -57 -9 -70 -11 -123 -20 -136 -22 -168 -24 -22 -1 -23
-3 -17 -53 3 -29 8 -73 11 -98 2 -25 11 -108 20 -185 8 -77 18 -162 21 -190 2
-27 7 -61 9 -75 2 -14 7 -54 10 -90 3 -36 8 -78 10 -95 1 -16 6 -59 10 -95 4
-36 8 -76 10 -90 2 -14 6 -50 10 -80 3 -30 8 -71 10 -90 3 -19 7 -64 10 -100
4 -36 8 -76 10 -90 2 -14 6 -52 10 -85 3 -33 8 -69 10 -80 2 -11 4 -30 4 -43
1 -23 2 -23 94 -17 50 3 124 8 162 10 39 3 99 7 135 10 36 2 108 7 160 10 269
15 327 31 406 109 65 66 87 127 89 251 2 171 -48 325 -134 411 l-47 46 29 58
c43 87 57 167 52 300 -8 240 -78 376 -219 429 -66 25 -211 25 -361 0z m57
-391 c53 -43 59 -247 7 -263 -27 -9 -27 -8 -33 50 -3 28 -7 59 -10 70 -2 11
-7 42 -10 70 -4 27 -9 51 -11 54 -7 7 16 31 29 31 7 0 19 -6 28 -12z m92 -627
c9 -10 19 -40 22 -67 3 -27 7 -61 8 -75 7 -53 -40 -110 -73 -90 -12 8 -26 225
-16 242 10 15 41 10 59 -10z"/>
</g>
</svg>
